<svg width="32" height="32" viewBox="0 0 32 32" fill="none" xmlns="http://www.w3.org/2000/svg">
<path d="M19.2 3.19995L25.6 9.59995V28.7999H6.40002V3.19995H19.2ZM8.00002 4.79995V6.39995H17.6V4.79995H8.00002ZM19.2 9.59995H24L19.2 4.79995V9.59995ZM8.00002 7.99995V9.59995H17.6V7.99995H8.00002ZM24 12.8V11.2H8.00002V12.8H24ZM8.00002 14.4V16H14.4V14.4H8.00002ZM24 19.2V14.4H16V19.2H24ZM8.00002 17.6V19.2H14.4V17.6H8.00002ZM24 22.4V20.7999H8.00002V22.4H24ZM19.2 25.5999V24H8.00002V25.5999H19.2Z" fill="#AAAAAA"/>
</svg>
