<svg width="64" height="64" viewBox="0 0 64 64" fill="none" xmlns="http://www.w3.org/2000/svg">
<path d="M57 26.2C57 26.2 54 29 48.9 32.3C47.5 24.2 43.6 14.2 36 2C36 2 33.5 15.1 25.2 27.4C21.6 21.8 20 17.4 20 17.4C-6.00004 43.5 15.6 62 29.2 62C46.6 62 61.9 53.6 57 26.2Z" fill="#FF9D33"/>
<path d="M46.7 49.4001C48.2 46.1001 49.2999 41.8001 49.5 36.4001C49.5 36.4001 47.3999 38.2001 43.7999 40.5C42.7999 35.1 40.0999 28.5 34.7999 20.3C34.7999 20.3 33.1 29 27.3 37.3C24.8 33.6 23.7 30.6 23.7 30.6C19.4 37.4001 17.7 42.8 17.6 47.1C15.2 46.2 13.7 45.5 13.7 45.5C17.8 57.7001 26.3 60.4001 30.1 60.4001C36.9 60.4001 43.7999 58.4001 50.5999 48.7001C50.5999 48.6 49.1 49.0001 46.7 49.4001Z" fill="#FFCE31"/>
<path d="M21.9001 43.9C21.9001 43.9 24.7001 47.7 26.8001 46.8C26.8001 46.8 30.8001 40.5 36.6001 37C36.6001 37 35.4001 46.6 36.8001 48.3C38.6001 50.6 43.5001 45.8 43.5001 45.8C43.5001 51.5 37.3001 58.6 31.7001 58.6C26.3001 58.6 18.5001 52.4 21.9001 43.9Z" fill="#FFDF85"/>
<path d="M49.7999 18.1C51.8999 15.1 53.2999 11.9 53.2999 11.9C56.7999 17.7 54.6999 21.2 53.1999 22.3C51.0999 23.9 47.3999 21.6 49.7999 18.1ZM11.5999 17.1C9.49994 13.6 9.29994 9.2 9.29994 9.2C4.29994 16.7 6.19994 20.9 7.89994 22.1C10.0999 23.8 13.8999 21.2 11.5999 17.1ZM23.1999 9.3C23.4999 6.9 22.4999 4.5 22.4999 4.5C27.1999 7.6 27.1999 10.2 26.5999 11.3C25.6999 12.6 22.8999 12 23.1999 9.3Z" fill="#FF9D33"/>
</svg>
