<svg width="28" height="28" viewBox="0 0 28 28" fill="none" xmlns="http://www.w3.org/2000/svg">
<g clip-path="url(#clip0_104_400)">
<path d="M23.8571 23.8576H19.7084V17.3604C19.7084 15.8111 19.6807 13.8167 17.5506 13.8167C15.3898 13.8167 15.0592 15.5048 15.0592 17.2476V23.8572H10.9106V10.4964H14.8932V12.3223H14.949C15.3476 11.6408 15.9236 11.0801 16.6156 10.7C17.3076 10.32 18.0897 10.1347 18.8787 10.164C23.0836 10.164 23.8588 12.9299 23.8588 16.5281L23.8571 23.8576ZM6.22932 8.67013C4.89965 8.67035 3.82154 7.59257 3.82132 6.2629C3.8211 4.93323 4.89877 3.85512 6.22844 3.8549C7.55812 3.85457 8.63623 4.93235 8.63645 6.26202C8.63656 6.90056 8.38302 7.51299 7.9316 7.96459C7.48018 8.4162 6.86786 8.66999 6.22932 8.67013ZM8.30373 23.8577H4.15065V10.4964H8.30362V23.8576L8.30373 23.8577ZM25.9254 0.00194631H2.06596C0.938303 -0.0107412 0.0135371 0.892587 -0.000244141 2.02024V25.9792C0.0130996 27.1074 0.937756 28.0116 2.06585 27.9998H25.9254C27.0559 28.0138 27.9841 27.1096 27.9998 25.9792V2.01838C27.9837 0.88854 27.0553 -0.0146787 25.9254 8.69355e-05" fill="#0A66C2"/>
</g>
<defs>
<clipPath id="clip0_104_400">
<rect width="28" height="28" fill="white"/>
</clipPath>
</defs>
</svg>
