<svg width="32" height="32" viewBox="0 0 32 32" fill="none" xmlns="http://www.w3.org/2000/svg">
  <path
    d="M3.651 16.9895H20.9775C21.5305 16.9895 21.9775 16.5415 21.9775 15.9895C21.9775 15.4375 21.5305 14.9895 20.9775 14.9895H3.7135L7.331 11.372C7.7215 10.9815 7.7215 10.3485 7.331 9.958C6.9405 9.5675 6.3075 9.5675 5.917 9.958L0.010498 16.0205L5.917 22.083C6.1125 22.2785 6.368 22.376 6.624 22.376C6.88 22.376 7.1355 22.2785 7.331 22.083C7.7215 21.6925 7.7215 21.0595 7.331 20.669L3.651 16.9895ZM29.9895 0H12.9895C11.8845 0 10.9895 0.8955 10.9895 2V11H13.0025V3.2195C13.0025 2.5515 13.5445 2.0095 14.2125 2.0095H28.735C29.4034 2.0095 29.945 2.5515 29.945 3.2195L29.9764 28.791C29.9764 29.459 29.4349 30.001 28.7664 30.001H14.213C13.545 30.001 13.003 29.459 13.003 28.791V20.967L10.99 20.9695V30C10.99 31.1045 11.885 32 12.99 32H29.9895C31.0945 32 31.99 31.1045 31.99 30V2C31.9895 0.8955 31.094 0 29.9895 0Z"
    fill="#AAAAAA"/>
</svg>
