<svg width="40" height="40" viewBox="0 0 40 40" fill="none" xmlns="http://www.w3.org/2000/svg">
<path d="M3.71621 19.2406C1.84184 23.7337 5.09934 29.1568 9.83121 30.1075C6.14371 27.6312 3.84121 23.6531 3.71621 19.2406Z" fill="black"/>
<path d="M9.83125 30.1075L9.71625 30.0831C9.73063 30.0869 9.765 30.0925 9.83125 30.1075ZM1.25 27.6631C1.55562 31.4256 6.27437 33.8369 9.66062 32.2956C6.17437 31.5469 3.86188 30.8613 1.25 27.6631ZM29.065 14.2463C31.26 9.76626 28.1431 4.22376 23.4056 3.01938C27.03 5.665 29.18 9.78438 29.065 14.2463ZM30.5406 11.155C33.1606 8.83688 32.1044 4.22501 29.0831 2.72375C30.5394 5.57688 31.0525 7.98688 30.5406 11.155Z" fill="black"/>
<path d="M37.8244 8.96561C37.2317 8.51252 36.5061 8.26737 35.76 8.26811C31.2563 8.26811 30.4488 14.1344 29.4494 16.4244C29.4494 16.4244 24.8313 6.75624 23.225 3.56624C21.5688 0.275613 18.0332 0.955613 16.9975 2.74686C14.5375 0.197488 9.88941 2.25561 10.4819 5.35499C7.29191 5.10999 6.00254 8.25686 6.71066 10.2744C4.24504 10.1981 3.09254 13.2475 3.92629 15.4306C3.96941 15.5444 8.34691 24.1594 9.52566 27.0944C9.66254 27.435 9.80066 27.7994 9.94566 28.1831C10.8988 30.7031 12.2044 34.1544 15.4707 36.9262C16.8769 38.1194 18.8238 38.75 21.1025 38.75C25.1188 38.75 29.5907 36.7569 32.4957 33.6712C35.0975 30.9081 36.3444 27.5162 36.1019 23.8619C35.8844 20.5769 36.9294 17.4819 37.7688 14.9944C38.6794 12.295 39.3982 10.1625 37.8244 8.96561ZM34.1075 23.7531C34.6157 31.0206 27.3313 37.1525 21.1513 37.1525C19.2632 37.1525 17.3075 36.8475 16.0857 35.8106C12.5819 32.8369 11.7025 29.1569 10.6869 26.6331C9.47379 23.6137 6.49629 17.8119 5.05316 14.8931C4.46254 13.6981 5.44941 11.155 7.16816 11.155L12.125 21.6975L14.0032 22.825C14.0032 22.825 9.70191 13.4512 8.34004 10.2206C7.54504 8.33436 8.91504 6.05686 10.7613 6.35374L16.915 19.4887L18.7938 20.6187L11.6213 5.47311C11.5925 2.78874 15.2657 2.74686 16.1194 4.31436C18.28 8.28186 22.3363 16.9887 22.3363 16.9887L24.2138 18.1181L17.4807 3.84124C18.7957 2.11999 21.1157 2.36124 22.1157 4.45061C23.3169 6.95999 28.4038 17.8594 28.4038 17.8594C23.3819 19.7419 19.9538 25.1987 23.5432 30.5781C20.695 24.6969 25.7407 20.5406 28.7213 19.1669C29.8494 18.6462 30.2644 17.6619 30.2644 17.6619L30.2619 17.6625C30.655 16.9506 30.6319 15.9987 31.1007 14.4581C32.1163 11.1237 33.5094 9.35686 35.5538 9.35686C36.025 9.35686 36.6188 9.70936 36.8913 10.1112C38.2682 12.1431 33.635 17.0006 34.1075 23.7531Z" fill="black"/>
</svg>
